<?xml version="1.0" encoding="utf-8"?>
<!-- Generator: Adobe Illustrator 23.1.0, SVG Export Plug-In . SVG Version: 6.00 Build 0)  -->
<svg version="1.1" id="Слой_1" xmlns="http://www.w3.org/2000/svg" xmlns:xlink="http://www.w3.org/1999/xlink" x="0px" y="0px"
	 viewBox="0 0 683.9 272.4" style="enable-background:new 0 0 683.9 272.4;" xml:space="preserve">
<style type="text/css">
	.st0{fill:#7080E5;}
	.st1{fill:#4C60DE;}
	.st2{font-family:'Bauhaus93';}
	.st3{font-size:200px;}
</style>
<g>
	<path class="st0" d="M409.9,153.9L511.7,0H355.6l-2.9,11.3c-7.5,29-21.5,68.3-45.9,90.8c-3,2.8-5.9,5-8.5,6.8V0h-136v30.1H175v68.2
		c-15.2-13.4-34.4-39-39.4-84.9L134.1,0H0l4.6,18.7C21.2,85.8,46,140.7,78.4,182c26.5,33.7,58,58.5,93.7,73.6
		c31.9,13.5,61.3,16.8,82.4,16.8c19.4,0,31.9-2.8,32.9-3l11.5-2.7l0.6-41.4l51.1,44.4H512L409.9,153.9z"/>
	<path class="st1" d="M409.9,153.9L511.7,0H355.6l-2.9,11.3c-7.5,29-21.5,68.3-45.9,90.8c-3,2.8-5.9,5-8.5,6.8V0h-51.7v272.3
		c2.8,0.1,5.5,0.2,8,0.2c19.4,0,31.9-2.8,32.9-3l11.5-2.7l0.6-41.4l51.1,44.4H512L409.9,153.9z"/>
	<text transform="matrix(1 0 0 1 404.2832 194.5586)" class="st1 st2 st3">api</text>
</g>
</svg>
